<svg width="746" height="663" viewBox="0 0 746 663" fill="none" xmlns="http://www.w3.org/2000/svg">
<g clip-path="url(#clip0_227_3)">
<path d="M724.05 375.52L502.793 92.4198L475.899 150.094L648.479 361.125L648.358 356.68L644.156 365.692L647.639 362.928L375.047 366.372L348.153 424.046L707.242 411.566L724.05 375.52Z" fill="url(#paint0_linear_227_3)"/>
<g filter="url(#filter0_d_227_3)">
<path d="M560.38 74.58L244.153 620.866L192.29 606.969L508.516 60.6832L560.38 74.58Z" fill="url(#paint1_linear_227_3)"/>
</g>
<path d="M46.4548 268.479L405.543 255.999L378.649 313.673L106.057 317.117L109.541 314.353L105.339 323.365L105.217 318.92L277.797 529.951L250.903 587.625L29.6461 304.525L46.4548 268.479Z" fill="url(#paint2_linear_227_3)"/>
</g>
<defs>
<filter id="filter0_d_227_3" x="188.29" y="18.2207" width="376.09" height="653.107" filterUnits="userSpaceOnUse" color-interpolation-filters="sRGB">
<feFlood flood-opacity="0" result="BackgroundImageFix"/>
<feColorMatrix in="SourceAlpha" type="matrix" values="0 0 0 0 0 0 0 0 0 0 0 0 0 0 0 0 0 0 127 0" result="hardAlpha"/>
<feOffset dy="4"/>
<feGaussianBlur stdDeviation="2"/>
<feComposite in2="hardAlpha" operator="out"/>
<feColorMatrix type="matrix" values="0 0 0 0 0 0 0 0 0 0 0 0 0 0 0 0 0 0 0.25 0"/>
<feBlend mode="normal" in2="BackgroundImageFix" result="effect1_dropShadow_227_3"/>
<feBlend mode="normal" in="SourceGraphic" in2="effect1_dropShadow_227_3" result="shape"/>
</filter>
<linearGradient id="paint0_linear_227_3" x1="726.314" y1="-7.37535" x2="61.499" y2="722" gradientUnits="userSpaceOnUse">
<stop stop-color="#15C564"/>
<stop offset="1" stop-color="#24B6DE"/>
</linearGradient>
<linearGradient id="paint1_linear_227_3" x1="794.998" y1="-43.5" x2="-60.502" y2="686.5" gradientUnits="userSpaceOnUse">
<stop stop-color="#15C564"/>
<stop offset="1" stop-color="#24B6DE"/>
</linearGradient>
<linearGradient id="paint2_linear_227_3" x1="855" y1="-13.4998" x2="-19.6432" y2="788.268" gradientUnits="userSpaceOnUse">
<stop stop-color="#15C564"/>
<stop offset="1" stop-color="#24B6DE"/>
</linearGradient>
<clipPath id="clip0_227_3">
<rect width="746" height="663" fill="white"/>
</clipPath>
</defs>
</svg>
